# Blender 3.3.9
# www.blender.org
mtllib GizmoScale.mtl
o GizmoScale
v 0.008957 -0.413574 -0.027568
v 0.023450 -0.413574 -0.017038
v 0.028986 -0.413574 -0.000001
v 0.023451 -0.413574 0.017037
v 0.008958 -0.413574 0.027567
v -0.008957 -0.413574 0.027568
v -0.023450 -0.413574 0.017038
v -0.028986 -0.413574 0.000001
v -0.023451 -0.413574 -0.017037
v -0.008958 -0.413574 -0.027567
v 0.010832 1.091200 -0.033341
v 0.028360 1.091200 -0.020606
v 0.035056 1.091200 -0.000001
v 0.028361 1.091200 0.020605
v 0.010834 1.091200 0.033340
v -0.010832 1.091200 0.033341
v -0.028360 1.091200 0.020606
v -0.035056 1.091200 0.000001
v -0.028361 1.091200 -0.020605
v -0.010834 1.091200 -0.033340
v -0.019950 1.249703 0.000000
v 0.019950 1.249703 -0.000000
v -0.016141 1.249703 -0.049673
v -0.042256 1.249703 -0.030699
v -0.052230 1.249703 0.000001
v -0.042254 1.249703 0.030701
v -0.016139 1.249703 0.049674
v 0.016141 1.249703 0.049674
v 0.042256 1.249703 0.030699
v 0.052230 1.249703 -0.000001
v 0.042254 1.249703 -0.030701
v 0.016139 1.249703 -0.049674
v 0.009323 -0.119754 -0.028695
v 0.024409 -0.119754 -0.017735
v 0.030171 -0.119754 -0.000001
v 0.024409 -0.119754 0.017734
v 0.009324 -0.119754 0.028694
v -0.009323 -0.119754 0.028695
v -0.024409 -0.119754 0.017735
v -0.030171 -0.119754 0.000001
v -0.024409 -0.119754 -0.017734
v -0.009324 -0.119754 -0.028694
v -0.029848 1.091200 -0.091855
v 0.034132 1.249703 -0.105055
v -0.034137 1.108375 -0.105053
v -0.078139 1.091200 -0.056768
v 0.089363 1.249703 -0.064929
v -0.089366 1.108375 -0.064925
v -0.096583 1.091200 0.000002
v 0.110460 1.249703 -0.000003
v -0.110460 1.108375 0.000003
v -0.078136 1.091200 0.056772
v 0.089366 1.249703 0.064925
v -0.089363 1.108375 0.064929
v -0.029844 1.091200 0.091857
v 0.034137 1.249703 0.105053
v -0.034132 1.108375 0.105055
v 0.029848 1.091200 0.091855
v -0.034132 1.249703 0.105055
v 0.034137 1.108375 0.105053
v 0.078139 1.091200 0.056768
v -0.089363 1.249703 0.064929
v 0.089366 1.108375 0.064925
v 0.096583 1.091200 -0.000002
v -0.110460 1.249703 0.000003
v 0.110460 1.108375 -0.000003
v 0.078136 1.091200 -0.056772
v -0.089366 1.249703 -0.064925
v 0.089363 1.108375 -0.064929
v -0.034137 1.249703 -0.105053
v 0.029844 1.091200 -0.091857
v 0.034132 1.108375 -0.105055
v -0.583921 0.125571 0.000000
v -0.217885 0.125571 0.000000
v -0.583921 0.491608 0.000000
v -0.217885 0.491608 0.000000
vn 0.5878 -0.0038 -0.8090
vn 0.9510 -0.0038 -0.3090
vn 0.9511 -0.0038 0.3090
vn 0.5878 -0.0038 0.8090
vn -0.0000 -0.0038 1.0000
vn -0.5878 -0.0038 0.8090
vn -0.9510 -0.0038 0.3090
vn -0.9511 -0.0038 -0.3090
vn -0.5878 -0.0038 -0.8090
vn -0.0000 -0.0038 -1.0000
vn -0.0000 1.0000 -0.0000
vn -0.0000 -1.0000 -0.0000
vn 0.4660 -0.6093 -0.6415
vn 0.5878 -0.0000 -0.8090
vn 0.7541 -0.6093 -0.2450
vn -0.5878 -0.0000 -0.8090
vn 0.7541 -0.6093 0.2450
vn -0.9510 -0.0000 0.3090
vn 0.4661 -0.6093 0.6415
vn -0.0000 -0.0000 1.0000
vn -0.0000 -0.6093 0.7929
vn -0.0000 -0.0000 -1.0000
vn -0.4661 -0.6093 0.6415
vn 0.9511 -0.0000 0.3090
vn -0.7541 -0.6093 0.2450
vn -0.9511 -0.0000 -0.3090
vn -0.7541 -0.6093 -0.2450
vn -0.5878 -0.0000 0.8090
vn -0.4661 -0.6093 -0.6415
vn 0.5878 -0.0000 0.8090
vn -0.0000 -0.6093 -0.7929
vn 0.9510 -0.0000 -0.3090
vn 0.4661 -0.6093 -0.6415
vn -0.4660 -0.6093 0.6415
vt 1.000000 1.000000
vt -0.000000 1.000000
vt 0.900000 1.000000
vt 0.800000 1.000000
vt 0.700000 1.000000
vt 0.600000 1.000000
vt 0.500000 1.000000
vt 0.400000 1.000000
vt 0.300000 1.000000
vt 0.200000 1.000000
vt 0.100000 1.000000
vt 1.000000 0.160221
vt -0.000000 0.160221
vt 0.900000 0.160221
vt 0.800000 0.160221
vt 0.700000 0.160221
vt 0.600000 0.160221
vt 0.500000 0.160221
vt 0.400000 0.160221
vt 0.300000 0.160221
vt 0.200000 0.160221
vt 0.100000 0.160221
vt 0.388235 0.160221
vt 0.478083 0.160221
vt 0.710153 0.160221
vt 0.100000 0.160221
vt 0.200000 0.160221
vt 0.300000 0.160221
vt 0.400000 0.160221
vt 0.500000 0.160221
vt 0.600000 0.160221
vt 0.700000 0.160221
vt 0.800000 0.160221
vt 0.900000 0.160221
vt 0.993149 0.160221
vt 0.006851 0.160221
vt -0.000000 0.836026
vt 1.000000 0.836026
vt 0.900000 0.836026
vt 0.800000 0.836026
vt 0.700000 0.836026
vt 0.600000 0.836026
vt 0.500000 0.836026
vt 0.400000 0.836026
vt 0.300000 0.836026
vt 0.200000 0.836026
vt 0.100000 0.836026
vt 0.100000 0.160221
vt 0.993149 0.160221
vt 0.006851 0.160221
vt 0.100000 0.160221
vt 0.200000 0.160221
vt 0.900000 0.160221
vt 0.200000 0.160221
vt 0.300000 0.160221
vt 0.800000 0.160221
vt 0.300000 0.160221
vt 0.400000 0.160221
vt 0.700000 0.160221
vt 0.400000 0.160221
vt 0.500000 0.160221
vt 0.600000 0.160221
vt 0.500000 0.160221
vt 0.600000 0.160221
vt 0.500000 0.160221
vt 0.600000 0.160221
vt 0.700000 0.160221
vt 0.400000 0.160221
vt 0.700000 0.160221
vt 0.800000 0.160221
vt 0.300000 0.160221
vt 0.800000 0.160221
vt 0.900000 0.160221
vt 0.200000 0.160221
vt 0.900000 0.160221
vt 0.100000 0.160221
vt 1.000000 0.160221
vt -0.000000 0.160221
vt 0.993149 0.160221
vt 0.006851 0.160221
vt 0.000000 0.000000
vt 1.000000 0.000000
vt 0.000000 1.000000
vt 1.000000 1.000000
s 0
f 1/1/1 33/38/1 34/39/1
f 34/39/2 35/40/2 3/4/2
f 3/4/3 35/40/3 36/41/3
f 36/41/4 37/42/4 5/6/4
f 37/42/5 38/43/5 6/7/5
f 38/43/6 39/44/6 7/8/6
f 7/8/7 39/44/7 40/45/7
f 8/9/8 40/45/8 41/46/8
f 9/10/9 41/46/9 42/47/9
f 10/11/10 42/47/10 33/37/10
f 62/68/11 59/65/11 27/30/11
f 22/25/11 30/33/11 31/34/11
f 68/74/11 65/71/11 25/28/11
f 70/76/11 23/26/11 32/36/11
f 21/23/11 27/30/11 28/31/11
f 70/76/11 68/74/11 24/27/11
f 62/68/11 26/29/11 25/28/11
f 18/20/12 17/19/12 52/58/12
f 44/49/11 32/35/11 31/34/11
f 15/17/12 14/16/12 61/67/12
f 13/15/12 12/14/12 67/73/12
f 12/14/12 11/12/12 71/77/12
f 26/29/11 27/30/11 21/23/11
f 18/20/12 49/55/12 46/52/12
f 15/17/12 58/64/12 55/61/12
f 13/15/12 64/70/12 61/67/12
f 20/22/12 43/48/12 71/78/12
f 50/56/11 47/53/11 31/34/11
f 17/19/12 16/18/12 55/61/12
f 59/65/11 56/62/11 28/31/11
f 23/26/11 21/23/11 22/24/11
f 24/27/11 25/28/11 21/23/11
f 22/25/11 28/31/11 29/32/11
f 53/59/11 50/56/11 30/33/11
f 53/59/11 29/32/11 28/31/11
f 42/47/10 20/22/10 11/13/10
f 41/46/9 19/21/9 20/22/9
f 40/45/8 18/20/8 19/21/8
f 39/44/7 17/19/7 18/20/7
f 38/43/6 16/18/6 17/19/6
f 37/42/5 15/17/5 16/18/5
f 36/41/4 14/16/4 15/17/4
f 35/40/3 13/15/3 14/16/3
f 34/39/2 12/14/2 13/15/2
f 33/38/1 11/12/1 12/14/1
f 71/77/13 72/79/13 69/75/13
f 69/75/14 72/79/14 44/49/14
f 64/70/15 67/73/15 69/75/15
f 45/51/16 48/54/16 68/74/16
f 64/70/17 66/72/17 63/69/17
f 51/57/18 54/60/18 62/68/18
f 58/64/19 61/67/19 63/69/19
f 57/63/20 60/66/20 56/62/20
f 55/61/21 58/64/21 60/66/21
f 72/80/22 45/51/22 70/76/22
f 52/58/23 55/61/23 57/63/23
f 63/69/24 66/72/24 50/56/24
f 49/55/25 52/58/25 54/60/25
f 48/54/26 51/57/26 65/71/26
f 46/52/27 49/55/27 51/57/27
f 54/60/28 57/63/28 59/65/28
f 46/52/29 48/54/29 45/51/29
f 60/66/30 63/69/30 53/59/30
f 71/78/31 43/48/31 45/51/31
f 66/72/32 69/75/32 47/53/32
f 19/21/12 46/52/12 43/48/12
f 74/82/22 73/81/22 75/83/22
f 1/1/1 34/39/1 2/3/1
f 34/39/2 3/4/2 2/3/2
f 3/4/3 36/41/3 4/5/3
f 36/41/4 5/6/4 4/5/4
f 37/42/5 6/7/5 5/6/5
f 38/43/6 7/8/6 6/7/6
f 7/8/7 40/45/7 8/9/7
f 8/9/8 41/46/8 9/10/8
f 9/10/9 42/47/9 10/11/9
f 10/11/10 33/37/10 1/2/10
f 62/68/11 27/30/11 26/29/11
f 22/25/11 31/34/11 32/35/11
f 68/74/11 25/28/11 24/27/11
f 70/76/11 32/36/11 44/50/11
f 21/23/11 28/31/11 22/24/11
f 70/76/11 24/27/11 23/26/11
f 62/68/11 25/28/11 65/71/11
f 18/20/12 52/58/12 49/55/12
f 44/49/11 31/34/11 47/53/11
f 15/17/12 61/67/12 58/64/12
f 13/15/12 67/73/12 64/70/12
f 12/14/12 71/77/12 67/73/12
f 26/29/11 21/23/11 25/28/11
f 18/20/12 46/52/12 19/21/12
f 15/17/12 55/61/12 16/18/12
f 13/15/12 61/67/12 14/16/12
f 20/22/12 71/78/12 11/13/12
f 50/56/11 31/34/11 30/33/11
f 17/19/12 55/61/12 52/58/12
f 59/65/11 28/31/11 27/30/11
f 23/26/11 22/24/11 32/36/11
f 24/27/11 21/23/11 23/26/11
f 22/25/11 29/32/11 30/33/11
f 53/59/11 30/33/11 29/32/11
f 53/59/11 28/31/11 56/62/11
f 42/47/10 11/13/10 33/37/10
f 41/46/9 20/22/9 42/47/9
f 40/45/8 19/21/8 41/46/8
f 39/44/7 18/20/7 40/45/7
f 38/43/6 17/19/6 39/44/6
f 37/42/5 16/18/5 38/43/5
f 36/41/4 15/17/4 37/42/4
f 35/40/3 14/16/3 36/41/3
f 34/39/2 13/15/2 35/40/2
f 33/38/1 12/14/1 34/39/1
f 71/77/33 69/75/33 67/73/33
f 69/75/14 44/49/14 47/53/14
f 64/70/15 69/75/15 66/72/15
f 45/51/16 68/74/16 70/76/16
f 64/70/17 63/69/17 61/67/17
f 51/57/18 62/68/18 65/71/18
f 58/64/19 63/69/19 60/66/19
f 57/63/20 56/62/20 59/65/20
f 55/61/21 60/66/21 57/63/21
f 72/80/22 70/76/22 44/50/22
f 52/58/34 57/63/34 54/60/34
f 63/69/24 50/56/24 53/59/24
f 49/55/25 54/60/25 51/57/25
f 48/54/26 65/71/26 68/74/26
f 46/52/27 51/57/27 48/54/27
f 54/60/28 59/65/28 62/68/28
f 46/52/29 45/51/29 43/48/29
f 60/66/30 53/59/30 56/62/30
f 71/78/31 45/51/31 72/80/31
f 66/72/32 47/53/32 50/56/32
f 19/21/12 43/48/12 20/22/12
f 74/82/22 75/83/22 76/84/22
