# Blender 3.3.9
# www.blender.org
mtllib GizmoRotation.mtl
o RotationGizmo
v 0.355855 0.953656 0.064769
v 0.954531 0.224866 -0.063383
v 0.973771 0.029776 -0.063323
v 0.897553 -0.352907 -0.063558
v 0.680536 -0.677331 -0.064147
v -0.168180 1.010561 -0.064967
v -0.528862 0.861246 -0.064480
v -0.680536 0.736883 -0.064147
v -0.680536 0.736883 0.064147
v -0.897552 0.412460 0.063558
v -0.973770 0.029776 0.063323
v -0.805032 -0.525794 -0.063825
v -0.805032 -0.525794 0.063824
v -0.680536 -0.677331 0.064147
v -0.528862 -0.801694 -0.064480
v -0.355855 -0.894103 -0.064769
v -0.168180 -0.951009 0.064967
v 0.052535 -0.165314 0.959024
v 0.052680 -0.352907 0.902059
v 0.053681 -0.894103 0.360448
v 0.053844 1.010561 -0.172788
v 0.053442 0.861246 -0.533434
v 0.052900 0.585346 -0.809558
v -0.052536 0.224866 -0.959024
v 0.052536 -0.165314 -0.959024
v 0.052903 -0.525794 -0.809557
v 0.053447 -0.801694 -0.533432
v -0.054684 -0.959059 0.084685
v -0.054380 -0.959039 -0.085584
v 0.054685 -0.959059 -0.084686
v -0.054380 1.018592 0.085584
v 0.054685 1.018611 0.084685
v -0.941439 0.025232 0.244392
v -0.849895 0.025232 0.425996
v -0.755001 0.025232 0.581420
v -0.641581 0.025232 0.722878
v -0.524679 0.025232 0.810154
v -0.389253 0.025232 0.883465
v -0.246185 0.025232 0.937019
v -0.924610 -0.169859 0.242041
v -0.835478 -0.169859 0.421233
v -0.742995 -0.169859 0.574244
v -0.631987 -0.169859 0.713291
v -0.517496 -0.169859 0.798154
v -0.384481 -0.169859 0.869053
v -0.243824 -0.169859 0.920196
v -0.168180 1.010561 0.064967
v -0.805032 0.585346 0.063824
v -0.954531 0.224866 -0.063383
v -0.954531 -0.165314 0.063383
v -0.897553 -0.352907 -0.063558
v -0.680536 -0.677331 -0.064147
v -0.355855 -0.894103 0.064769
v 0.355855 0.953656 -0.064769
v 0.528862 0.861246 -0.064480
v 0.680536 0.736883 -0.064147
v 0.680536 0.736883 0.064147
v 0.954531 0.224866 0.063383
v 0.897553 -0.352907 0.063558
v 0.805033 -0.525794 0.063824
v 0.528862 -0.801694 0.064480
v -0.053853 1.010561 0.172783
v 0.053844 1.010561 0.172788
v -0.053688 0.953656 0.360445
v 0.053442 0.861246 0.533434
v -0.052902 0.585346 0.809556
v 0.052680 0.412460 0.902059
v -0.052681 0.412460 0.902058
v 0.052535 0.224866 0.959024
v -0.053843 -0.951009 0.172788
v -0.052485 0.029776 -0.978260
v 0.052486 0.029776 -0.978260
v -0.052536 -0.165314 -0.959024
v 0.052680 -0.352907 -0.902059
v -0.053170 -0.677331 -0.685083
v 0.053167 -0.677331 -0.685084
v -0.053447 -0.801694 -0.533432
v 0.053681 -0.894103 -0.360448
v -0.053853 -0.951009 -0.172784
v -0.054380 -0.959039 0.085584
v 0.054685 -0.959059 0.084685
v 0.054380 1.018592 0.085584
v 0.941439 0.025232 0.244392
v 0.849896 0.025232 0.425996
v 0.755001 0.025232 0.581420
v 0.641582 0.025232 0.722878
v 0.524680 0.025232 0.810154
v 0.389253 0.025232 0.883465
v 0.246186 0.025232 0.937019
v 0.924611 -0.169859 0.242041
v 0.835479 -0.169859 0.421233
v 0.742995 -0.169859 0.574244
v 0.631987 -0.169859 0.713291
v 0.517497 -0.169859 0.798154
v 0.384481 -0.169859 0.869053
v 0.243825 -0.169859 0.920196
v 0.168180 1.010561 0.064967
v 0.168180 1.010561 -0.064967
v 0.897553 0.412460 -0.063558
v 0.897553 0.412460 0.063558
v 0.805033 -0.525794 -0.063825
v 0.528862 -0.801694 -0.064480
v 0.355855 -0.894103 0.064769
v 0.168180 -0.951009 0.064967
v -0.355855 0.953656 0.064769
v -0.355855 0.953656 -0.064769
v -0.528862 0.861246 0.064480
v -0.897552 0.412460 -0.063558
v -0.954531 -0.165314 -0.063383
v 0.053688 0.953656 -0.360445
v 0.053171 0.736883 -0.685083
v 0.052681 0.412460 -0.902058
v -0.052902 -0.525794 -0.809557
v -0.053688 -0.894103 -0.360445
v 0.053681 0.953656 0.360448
v -0.053447 0.861246 0.533432
v 0.053167 0.736883 0.685084
v 0.052900 0.585346 0.809558
v -0.052679 -0.352907 0.902059
v 0.052903 -0.525794 0.809556
v -0.052900 -0.525794 0.809558
v -0.053441 -0.801694 0.533434
v 0.053854 -0.951009 0.172783
v 0.054380 -0.959039 -0.085584
v -0.054684 -0.959059 -0.084686
v -0.054684 1.018611 0.084685
v -0.054380 1.018592 -0.085584
v 0.054685 1.018611 -0.084685
v -0.941439 0.025232 -0.244393
v -0.849895 0.025232 -0.425996
v -0.755001 0.025232 -0.581420
v -0.641581 0.025232 -0.722879
v -0.524679 0.025232 -0.810154
v -0.389253 0.025232 -0.883465
v -0.246185 0.025232 -0.937019
v -0.924610 -0.169859 -0.242041
v -0.835478 -0.169859 -0.421233
v -0.742995 -0.169859 -0.574244
v -0.631987 -0.169859 -0.713291
v -0.517496 -0.169859 -0.798154
v -0.384481 -0.169859 -0.869053
v -0.243824 -0.169859 -0.920196
v -0.805032 0.585346 -0.063825
v -0.954531 0.224866 0.063383
v -0.973771 0.029776 -0.063323
v -0.897553 -0.352907 0.063558
v -0.528862 -0.801694 0.064480
v -0.168180 -0.951009 -0.064967
v 0.528862 0.861246 0.064480
v 0.805033 0.585346 0.063824
v 0.805033 0.585346 -0.063825
v 0.973771 0.029776 0.063323
v 0.954531 -0.165314 0.063383
v 0.954531 -0.165314 -0.063383
v 0.680536 -0.677331 0.064147
v 0.355855 -0.894103 -0.064769
v 0.168180 -0.951009 -0.064967
v -0.053853 1.010561 -0.172784
v -0.053688 0.953656 -0.360445
v -0.053447 0.861246 -0.533432
v -0.053170 0.736883 -0.685083
v -0.052902 0.585346 -0.809557
v -0.052681 0.412460 -0.902058
v 0.052535 0.224866 -0.959024
v -0.052679 -0.352907 -0.902059
v 0.053854 -0.951009 -0.172784
v -0.053167 0.736883 0.685084
v -0.052535 0.224866 0.959024
v -0.052485 0.029776 0.978260
v 0.052486 0.029776 0.978260
v -0.052536 -0.165314 0.959024
v -0.053170 -0.677331 0.685083
v 0.053167 -0.677331 0.685084
v 0.053442 -0.801694 0.533434
v -0.053688 -0.894103 0.360445
v 0.054380 -0.959039 0.085584
v 0.054380 1.018592 -0.085584
v -0.054684 1.018611 -0.084685
v 0.941439 0.025232 -0.244393
v 0.849896 0.025232 -0.425996
v 0.755001 0.025232 -0.581420
v 0.641582 0.025232 -0.722879
v 0.524680 0.025232 -0.810154
v 0.389253 0.025232 -0.883465
v 0.246186 0.025232 -0.937019
v 0.924611 -0.169859 -0.242041
v 0.835479 -0.169859 -0.421233
v 0.742995 -0.169859 -0.574244
v 0.631987 -0.169859 -0.713291
v 0.517497 -0.169859 -0.798154
v 0.384481 -0.169859 -0.869053
v 0.243825 -0.169859 -0.920196
vn -0.1962 -0.0866 0.9767
vn -0.0704 0.9975 0.0002
vn 0.0704 0.9975 -0.0002
vn 0.0708 -0.9975 -0.0000
vn 0.2902 0.9570 -0.0000
vn 0.4711 0.8821 -0.0000
vn 0.6340 0.7733 -0.0000
vn 0.7727 0.6348 -0.0000
vn 0.8817 0.4718 -0.0000
vn 0.9568 0.2906 -0.0000
vn 0.9952 0.0981 -0.0000
vn 0.9952 -0.0981 -0.0000
vn 0.9568 -0.2906 -0.0000
vn 0.8817 -0.4718 -0.0000
vn 0.7727 -0.6348 -0.0000
vn 0.6340 -0.7733 -0.0000
vn 0.4711 -0.8821 -0.0000
vn 0.2902 -0.9570 -0.0000
vn -0.2902 0.9570 -0.0000
vn -0.4711 0.8821 -0.0000
vn -0.6340 0.7733 -0.0000
vn -0.7727 0.6348 -0.0000
vn -0.8817 0.4718 -0.0000
vn -0.9568 0.2906 -0.0000
vn -0.9952 0.0981 -0.0000
vn -0.9952 -0.0981 -0.0000
vn -0.9568 -0.2906 -0.0000
vn -0.8817 -0.4718 -0.0000
vn -0.7727 -0.6348 -0.0000
vn -0.6340 -0.7733 -0.0000
vn -0.4711 -0.8821 -0.0000
vn -0.2902 -0.9570 -0.0000
vn -0.0708 -0.9975 -0.0000
vn -0.0000 0.9570 0.2902
vn -0.0000 0.8820 0.4712
vn -0.0000 0.7732 0.6341
vn -0.0000 0.6347 0.7727
vn -0.0000 0.4718 0.8817
vn -0.0000 0.2906 0.9569
vn -0.0000 0.0981 0.9952
vn -0.0000 -0.0981 0.9952
vn -0.0000 -0.2906 0.9569
vn -0.0000 -0.4718 0.8817
vn -0.0000 -0.6347 0.7727
vn -0.0000 -0.7732 0.6341
vn -0.0000 -0.8820 0.4712
vn -0.0000 -0.9570 0.2902
vn -0.0000 0.9570 -0.2902
vn -0.0000 0.8820 -0.4712
vn -0.0000 0.7732 -0.6341
vn -0.0000 0.6347 -0.7727
vn -0.0000 0.4718 -0.8817
vn -0.0000 0.2906 -0.9569
vn -0.0000 0.0981 -0.9952
vn -0.0000 -0.0981 -0.9952
vn -0.0000 -0.2906 -0.9569
vn -0.0000 -0.4718 -0.8817
vn -0.0000 -0.6347 -0.7727
vn -0.0000 -0.7732 -0.6341
vn -0.0000 -0.8820 -0.4712
vn -0.0000 -0.9570 -0.2902
vn 0.0002 1.0000 -0.0001
vn 0.0002 -1.0000 0.0001
vn -0.0000 -0.9958 -0.0917
vn -0.0000 -0.9958 0.0917
vn -0.0006 0.9959 -0.0910
vn 0.0006 0.9959 0.0910
vn -0.9802 -0.0966 0.1726
vn -0.8899 -0.0822 0.4486
vn -0.8511 -0.0756 0.5196
vn -0.7782 -0.0708 0.6240
vn -0.5968 -0.0686 0.7994
vn -0.4692 -0.0714 0.8802
vn -0.3407 -0.0775 0.9370
vn 0.1962 -0.0866 0.9767
vn 0.0708 0.9975 -0.0000
vn -0.0708 0.9975 -0.0000
vn -0.0704 -0.9975 0.0002
vn 0.0704 -0.9975 -0.0002
vn 0.0002 1.0000 0.0001
vn 0.0002 -1.0000 -0.0001
vn -0.0006 -0.9959 -0.0910
vn 0.0006 -0.9959 0.0910
vn -0.0000 0.9958 -0.0917
vn -0.0000 0.9958 0.0917
vn 0.9829 -0.0867 0.1624
vn 0.8927 -0.0768 0.4440
vn 0.8536 -0.0715 0.5160
vn 0.7796 -0.0689 0.6224
vn 0.5940 -0.0712 0.8013
vn 0.4692 -0.0714 0.8802
vn 0.3407 -0.0775 0.9370
vn -0.1962 -0.0866 -0.9767
vn -0.9829 -0.0867 -0.1624
vn -0.8927 -0.0768 -0.4440
vn -0.8536 -0.0715 -0.5160
vn -0.7796 -0.0689 -0.6224
vn -0.5940 -0.0712 -0.8013
vn -0.4692 -0.0714 -0.8802
vn -0.3407 -0.0775 -0.9370
vn 0.1962 -0.0866 -0.9767
vn 0.9802 -0.0966 -0.1726
vn 0.8899 -0.0822 -0.4486
vn 0.8511 -0.0756 -0.5196
vn 0.7782 -0.0708 -0.6240
vn 0.5968 -0.0686 -0.7994
vn 0.4692 -0.0714 -0.8802
vn 0.3407 -0.0775 -0.9370
vn -0.2051 -0.0960 0.9740
vn 0.0704 -0.9975 0.0002
vn -0.0704 -0.9975 -0.0002
vn -0.0002 1.0000 0.0001
vn -0.0002 -1.0000 -0.0001
vn 0.0006 -0.9959 -0.0910
vn -0.0006 -0.9959 0.0910
vn -0.9829 -0.0867 0.1624
vn -0.8927 -0.0768 0.4440
vn -0.8536 -0.0715 0.5160
vn -0.7796 -0.0689 0.6224
vn -0.5940 -0.0712 0.8013
vn -0.4747 -0.0764 0.8768
vn -0.3493 -0.0847 0.9332
vn 0.2051 -0.0960 0.9740
vn 0.0704 0.9975 0.0002
vn -0.0704 0.9975 -0.0002
vn -0.0002 1.0000 -0.0001
vn -0.0002 -1.0000 0.0001
vn 0.0006 0.9959 -0.0910
vn -0.0006 0.9959 0.0910
vn 0.9802 -0.0966 0.1726
vn 0.8899 -0.0822 0.4486
vn 0.8511 -0.0756 0.5196
vn 0.7782 -0.0708 0.6240
vn 0.5968 -0.0686 0.7994
vn 0.4747 -0.0764 0.8768
vn 0.3493 -0.0847 0.9332
vn -0.2051 -0.0960 -0.9740
vn -0.9802 -0.0966 -0.1726
vn -0.8899 -0.0822 -0.4486
vn -0.8511 -0.0756 -0.5196
vn -0.7782 -0.0708 -0.6240
vn -0.5968 -0.0686 -0.7994
vn -0.4747 -0.0764 -0.8768
vn -0.3493 -0.0847 -0.9332
vn 0.2051 -0.0960 -0.9740
vn 0.9829 -0.0867 -0.1624
vn 0.8927 -0.0768 -0.4440
vn 0.8536 -0.0715 -0.5160
vn 0.7796 -0.0689 -0.6224
vn 0.5940 -0.0712 -0.8013
vn 0.4747 -0.0764 -0.8768
vn 0.3493 -0.0847 -0.9332
vt 0.470080 0.875000
vt 0.511424 0.562500
vt 0.011194 0.500000
vt 0.511194 0.500000
vt 0.512161 0.375000
vt 0.516037 0.250000
vt 0.000000 0.937500
vt 0.008538 0.946038
vt 0.491462 0.946038
vt 0.000000 0.812500
vt 0.000000 0.820010
vt 0.000000 0.750000
vt 0.000000 0.756548
vt 0.016037 0.750000
vt 0.012161 0.625000
vt 0.011194 0.500000
vt 0.000000 0.307153
vt 0.000000 0.312500
vt 0.013570 0.312500
vt 0.016037 0.250000
vt 0.000000 0.179990
vt 0.000000 0.187500
vt 0.000000 0.116815
vt 0.000000 0.125000
vt 0.058869 0.062500
vt 0.441131 0.062500
vt 0.259469 0.437500
vt 0.240531 0.437500
vt 0.260080 0.375000
vt 0.274797 0.125000
vt 0.701211 0.937500
vt 0.757076 0.944553
vt 0.798798 0.937500
vt 0.732995 0.812500
vt 0.738753 0.687500
vt 0.759469 0.562500
vt 0.740531 0.437500
vt 0.240531 0.437500
vt 0.738752 0.312500
vt 0.732994 0.187500
vt 0.102784 0.027531
vt 0.172336 0.034408
vt 0.036827 0.016229
vt 0.827141 0.034654
vt 0.462920 0.016385
vt 0.062349 0.000151
vt 0.785203 0.027182
vt 0.103230 0.972506
vt 0.172859 0.965346
vt 0.214797 0.972818
vt 0.397216 0.972469
vt 0.112568 0.991330
vt 0.039885 0.500000
vt 0.068576 0.500000
vt 0.097267 0.500000
vt 0.125958 0.500000
vt 0.154649 0.500000
vt 0.183340 0.500000
vt 0.212031 0.500000
vt 0.040063 0.437500
vt 0.068701 0.437500
vt 0.097339 0.437500
vt 0.125978 0.437500
vt 0.154616 0.437500
vt 0.183254 0.437500
vt 0.211893 0.437500
vt 0.441131 0.937500
vt 0.058869 0.937500
vt 0.013570 0.687500
vt 0.000000 0.564930
vt 0.000000 0.562500
vt 0.011424 0.437500
vt 0.000000 0.371043
vt 0.000000 0.375000
vt 0.000000 0.243452
vt 0.000000 0.250000
vt 0.029920 0.125000
vt 0.529920 0.875000
vt 0.520517 0.812500
vt 0.516037 0.750000
vt 0.483963 0.750000
vt 0.488576 0.562500
vt 0.487839 0.375000
vt 0.486430 0.312500
vt 0.479483 0.187500
vt 0.201211 0.937500
vt 0.242922 0.944601
vt 0.201211 0.937500
vt 0.298798 0.937500
vt 0.242922 0.944601
vt 0.225203 0.875000
vt 0.267006 0.812500
vt 0.238753 0.687500
vt 0.260080 0.625000
vt 0.239920 0.625000
vt 0.259469 0.562500
vt 0.201202 0.062500
vt 0.242924 0.055447
vt 0.759278 0.500000
vt 0.240722 0.500000
vt 0.740722 0.500000
vt 0.240722 0.500000
vt 0.759469 0.437500
vt 0.240531 0.437500
vt 0.739920 0.375000
vt 0.763292 0.250000
vt 0.736707 0.250000
vt 0.767005 0.187500
vt 0.725199 0.125000
vt 0.798789 0.062500
vt 0.757078 0.055399
vt 0.396770 0.027494
vt 0.112471 0.008766
vt 0.214926 0.027541
vt 0.172336 0.034408
vt 0.102784 0.027531
vt 0.103230 0.972506
vt 0.172859 0.965346
vt 0.039885 0.500000
vt 0.068576 0.500000
vt 0.097267 0.500000
vt 0.125958 0.500000
vt 0.154649 0.500000
vt 0.183340 0.500000
vt 0.212031 0.500000
vt 0.040063 0.437500
vt 0.068701 0.437500
vt 0.097339 0.437500
vt 0.125978 0.437500
vt 0.154616 0.437500
vt 0.183254 0.437500
vt 0.211893 0.437500
vt 0.441131 0.937500
vt 0.058869 0.937500
vt 0.008538 0.946038
vt 0.491462 0.946038
vt 0.558869 0.937500
vt 0.512161 0.625000
vt 0.487839 0.625000
vt 0.513570 0.312500
vt 0.520517 0.187500
vt 0.470080 0.125000
vt 0.441131 0.062500
vt 0.058869 0.062500
vt 0.029920 0.875000
vt 0.000000 0.883185
vt 0.000000 0.875000
vt 0.020517 0.812500
vt 0.000000 0.625000
vt 0.000000 0.628957
vt 0.000000 0.437500
vt 0.000000 0.435070
vt 0.011424 0.437500
vt 0.725203 0.875000
vt 0.736708 0.750000
vt 0.739920 0.625000
vt 0.761247 0.312500
vt 0.774797 0.125000
vt 0.274801 0.875000
vt 0.232995 0.812500
vt 0.263293 0.750000
vt 0.261247 0.687500
vt 0.239920 0.375000
vt 0.261247 0.312500
vt 0.238753 0.312500
vt 0.232994 0.187500
vt 0.242924 0.055447
vt 0.298789 0.062500
vt 0.201202 0.062500
vt 0.036827 0.016229
vt 0.827141 0.034654
vt 0.785203 0.027182
vt 0.462920 0.016385
vt 0.062349 0.000151
vt 0.397216 0.972469
vt 0.112568 0.991330
vt 0.214797 0.972818
vt 0.463172 0.983771
vt 0.062253 0.999753
vt 0.785074 0.972459
vt 0.037080 0.983615
vt 0.827664 0.965592
vt 0.039885 0.500000
vt 0.068576 0.500000
vt 0.097267 0.500000
vt 0.125958 0.500000
vt 0.154649 0.500000
vt 0.183340 0.500000
vt 0.212031 0.500000
vt 0.040063 0.437500
vt 0.068701 0.437500
vt 0.097339 0.437500
vt 0.125978 0.437500
vt 0.154616 0.437500
vt 0.183254 0.437500
vt 0.211893 0.437500
vt 0.000000 0.687500
vt 0.000000 0.692847
vt 0.011424 0.562500
vt 0.000000 0.499180
vt 0.000000 0.500820
vt 0.011194 0.500000
vt 0.012161 0.375000
vt 0.020517 0.187500
vt 0.000000 0.062500
vt 0.008538 0.053962
vt 0.491462 0.053962
vt 0.479483 0.812500
vt 0.486430 0.687500
vt 0.513570 0.687500
vt 0.488806 0.500000
vt 0.011194 0.500000
vt 0.488576 0.437500
vt 0.011424 0.437500
vt 0.511424 0.437500
vt 0.011424 0.437500
vt 0.483963 0.250000
vt 0.529920 0.125000
vt 0.491462 0.053962
vt 0.558869 0.062500
vt 0.008538 0.053962
vt 0.757076 0.944553
vt 0.798798 0.937500
vt 0.774801 0.875000
vt 0.767006 0.812500
vt 0.763293 0.750000
vt 0.761247 0.687500
vt 0.760080 0.625000
vt 0.740531 0.562500
vt 0.760080 0.375000
vt 0.701202 0.062500
vt 0.757078 0.055399
vt 0.798789 0.062500
vt 0.236708 0.750000
vt 0.240531 0.562500
vt 0.240722 0.500000
vt 0.259278 0.500000
vt 0.240722 0.500000
vt 0.240531 0.437500
vt 0.236707 0.250000
vt 0.263292 0.250000
vt 0.267005 0.187500
vt 0.225199 0.125000
vt 0.112471 0.008766
vt 0.396770 0.027494
vt 0.214926 0.027541
vt 0.463172 0.983771
vt 0.062253 0.999753
vt 0.785074 0.972459
vt 0.827664 0.965592
vt 0.037080 0.983615
vt 0.039885 0.500000
vt 0.068576 0.500000
vt 0.097267 0.500000
vt 0.125958 0.500000
vt 0.154649 0.500000
vt 0.183340 0.500000
vt 0.212031 0.500000
vt 0.040063 0.437500
vt 0.068701 0.437500
vt 0.097339 0.437500
vt 0.125978 0.437500
vt 0.154616 0.437500
vt 0.183254 0.437500
vt 0.211893 0.437500
s 0
f 171/239/1 39/59/1 46/66/1
f 178/251/2 47/68/2 31/48/2
f 32/51/3 98/136/3 177/247/3
f 104/143/4 30/45/4 157/219/4
f 1/1/5 98/137/5 97/133/5
f 149/208/6 54/78/6 1/1/6
f 57/81/7 55/79/7 149/208/7
f 150/209/8 56/80/8 57/81/8
f 100/139/9 151/210/9 150/209/9
f 58/82/10 99/138/10 100/139/10
f 152/211/11 2/2/11 58/82/11
f 153/213/12 3/4/12 152/211/12
f 153/213/13 4/5/13 154/215/13
f 59/83/14 101/140/14 4/5/14
f 155/217/15 101/140/15 60/84/15
f 155/217/16 102/141/16 5/6/16
f 103/142/17 102/141/17 61/85/17
f 104/143/18 156/218/18 103/142/18
f 106/146/19 47/68/19 6/7/19
f 106/147/20 107/148/20 105/145/20
f 8/13/21 107/148/21 7/10/21
f 143/198/22 9/14/22 8/12/22
f 108/150/23 48/69/23 143/197/23
f 49/70/24 10/15/24 108/149/24
f 49/71/25 11/16/25 144/199/25
f 109/151/26 11/16/26 145/200/26
f 109/152/27 146/203/27 50/72/27
f 12/18/28 146/203/28 51/73/28
f 52/76/29 13/19/29 12/17/29
f 15/22/30 14/20/30 52/75/30
f 16/24/31 147/204/31 15/21/31
f 148/205/32 53/77/32 16/23/32
f 148/206/33 28/41/33 17/25/33
f 64/91/34 63/89/34 62/86/34
f 116/160/35 115/159/35 64/91/35
f 167/234/36 65/92/36 116/160/36
f 167/234/37 118/162/37 117/161/37
f 68/95/38 118/162/38 66/93/38
f 168/235/39 67/94/39 68/95/39
f 169/236/40 69/96/40 168/235/40
f 169/236/41 18/27/41 170/237/41
f 119/163/42 18/27/42 171/239/42
f 121/165/43 19/29/43 119/163/43
f 121/165/44 173/241/44 120/164/44
f 122/166/45 173/241/45 172/240/45
f 122/166/46 20/30/46 174/242/46
f 70/97/47 20/30/47 175/243/47
f 21/31/48 159/224/48 158/223/48
f 22/34/49 159/224/49 110/154/49
f 22/34/50 161/226/50 160/225/50
f 23/35/51 161/226/51 111/155/51
f 23/35/52 163/228/52 162/227/52
f 164/229/53 163/228/53 112/156/53
f 164/229/54 71/99/54 24/36/54
f 25/37/55 71/99/55 72/101/55
f 74/105/56 73/103/56 25/37/56
f 26/39/57 165/230/57 74/105/57
f 76/107/58 113/157/58 26/39/58
f 76/107/59 77/108/59 75/106/59
f 78/109/60 77/108/60 27/40/60
f 78/109/61 79/110/61 114/158/61
f 178/251/62 32/52/62 177/248/62
f 28/41/63 30/46/63 176/244/63
f 166/232/64 29/44/64 79/110/64
f 70/97/65 176/246/65 123/167/65
f 177/249/66 158/223/66 178/250/66
f 31/49/67 63/90/67 32/50/67
f 50/72/68 33/53/68 11/16/68
f 40/60/69 34/54/69 33/53/69
f 41/61/70 35/55/70 34/54/70
f 42/62/71 36/56/71 35/55/71
f 43/63/72 37/57/72 36/56/72
f 45/65/73 37/57/73 44/64/73
f 46/66/74 38/58/74 45/65/74
f 89/125/75 18/28/75 96/132/75
f 128/181/76 97/134/76 98/135/76
f 126/175/77 6/9/77 47/67/77
f 17/26/78 125/173/78 80/112/78
f 157/221/79 81/116/79 124/170/79
f 128/181/80 126/176/80 82/117/80
f 81/116/81 125/174/81 124/170/81
f 79/111/82 124/171/82 125/172/82
f 123/169/83 80/114/83 81/115/83
f 127/180/84 21/33/84 158/222/84
f 82/118/85 62/87/85 63/88/85
f 153/214/86 83/119/86 90/126/86
f 90/126/87 84/120/87 91/127/87
f 91/127/88 85/121/88 92/128/88
f 92/128/89 86/122/89 93/129/89
f 93/129/90 87/123/90 94/130/90
f 87/123/91 95/131/91 94/130/91
f 88/124/92 96/132/92 95/131/92
f 135/189/93 73/104/93 142/196/93
f 109/153/94 129/183/94 136/190/94
f 136/190/95 130/184/95 137/191/95
f 137/191/96 131/185/96 138/192/96
f 138/192/97 132/186/97 139/193/97
f 139/193/98 133/187/98 140/194/98
f 133/187/99 141/195/99 140/194/99
f 134/188/100 142/196/100 141/195/100
f 25/38/101 185/258/101 192/265/101
f 154/216/102 179/252/102 3/3/102
f 186/259/103 180/253/103 179/252/103
f 187/260/104 181/254/104 180/253/104
f 188/261/105 182/255/105 181/254/105
f 189/262/106 183/256/106 182/255/106
f 191/264/107 183/256/107 190/263/107
f 192/265/108 184/257/108 191/264/108
f 171/239/109 169/236/109 39/59/109
f 178/251/77 6/8/77 47/68/77
f 32/51/76 97/133/76 98/136/76
f 104/143/110 176/245/110 30/45/110
f 1/1/5 54/78/5 98/137/5
f 149/208/6 55/79/6 54/78/6
f 57/81/7 56/80/7 55/79/7
f 150/209/8 151/210/8 56/80/8
f 100/139/9 99/138/9 151/210/9
f 58/82/10 2/2/10 99/138/10
f 152/211/11 3/4/11 2/2/11
f 153/213/12 154/215/12 3/4/12
f 153/213/13 59/83/13 4/5/13
f 59/83/14 60/84/14 101/140/14
f 155/217/15 5/6/15 101/140/15
f 155/217/16 61/85/16 102/141/16
f 103/142/17 156/218/17 102/141/17
f 104/143/18 157/220/18 156/218/18
f 106/146/19 105/145/19 47/68/19
f 106/147/20 7/11/20 107/148/20
f 8/13/21 9/14/21 107/148/21
f 143/198/22 48/69/22 9/14/22
f 108/150/23 10/15/23 48/69/23
f 49/70/24 144/199/24 10/15/24
f 49/71/25 145/201/25 11/16/25
f 109/151/26 50/72/26 11/16/26
f 109/152/27 51/74/27 146/203/27
f 12/18/28 13/19/28 146/203/28
f 52/76/29 14/20/29 13/19/29
f 15/22/30 147/204/30 14/20/30
f 16/24/31 53/77/31 147/204/31
f 148/205/32 17/25/32 53/77/32
f 148/206/111 29/43/111 28/41/111
f 64/91/34 115/159/34 63/89/34
f 116/160/35 65/92/35 115/159/35
f 167/234/36 117/161/36 65/92/36
f 167/234/37 66/93/37 118/162/37
f 68/95/38 67/94/38 118/162/38
f 168/235/39 69/96/39 67/94/39
f 169/236/40 170/237/40 69/96/40
f 169/236/41 171/239/41 18/27/41
f 119/163/42 19/29/42 18/27/42
f 121/165/43 120/164/43 19/29/43
f 121/165/44 172/240/44 173/241/44
f 122/166/45 174/242/45 173/241/45
f 122/166/46 175/243/46 20/30/46
f 70/97/47 123/168/47 20/30/47
f 21/31/48 110/154/48 159/224/48
f 22/34/49 160/225/49 159/224/49
f 22/34/50 111/155/50 161/226/50
f 23/35/51 162/227/51 161/226/51
f 23/35/52 112/156/52 163/228/52
f 164/229/53 24/36/53 163/228/53
f 164/229/54 72/101/54 71/99/54
f 25/37/55 73/103/55 71/99/55
f 74/105/56 165/230/56 73/103/56
f 26/39/57 113/157/57 165/230/57
f 76/107/58 75/106/58 113/157/58
f 76/107/59 27/40/59 77/108/59
f 78/109/60 114/158/60 77/108/60
f 78/109/61 166/231/61 79/110/61
f 178/251/112 31/48/112 32/52/112
f 28/41/113 29/43/113 30/46/113
f 166/232/114 30/47/114 29/44/114
f 70/97/115 28/42/115 176/246/115
f 177/249/84 21/32/84 158/223/84
f 31/49/85 62/86/85 63/90/85
f 50/72/116 40/60/116 33/53/116
f 40/60/117 41/61/117 34/54/117
f 41/61/118 42/62/118 35/55/118
f 42/62/119 43/63/119 36/56/119
f 43/63/120 44/64/120 37/57/120
f 45/65/121 38/58/121 37/57/121
f 46/66/122 39/59/122 38/58/122
f 89/125/123 170/238/123 18/28/123
f 128/181/124 82/117/124 97/134/124
f 126/175/125 127/178/125 6/9/125
f 17/26/33 148/207/33 125/173/33
f 157/221/4 104/144/4 81/116/4
f 128/181/126 127/179/126 126/176/126
f 81/116/127 80/113/127 125/174/127
f 79/111/64 166/233/64 124/171/64
f 123/169/65 70/98/65 80/114/65
f 127/180/128 128/182/128 21/33/128
f 82/118/129 126/177/129 62/87/129
f 153/214/130 152/212/130 83/119/130
f 90/126/131 83/119/131 84/120/131
f 91/127/132 84/120/132 85/121/132
f 92/128/133 85/121/133 86/122/133
f 93/129/134 86/122/134 87/123/134
f 87/123/135 88/124/135 95/131/135
f 88/124/136 89/125/136 96/132/136
f 135/189/137 71/100/137 73/104/137
f 109/153/138 145/202/138 129/183/138
f 136/190/139 129/183/139 130/184/139
f 137/191/140 130/184/140 131/185/140
f 138/192/141 131/185/141 132/186/141
f 139/193/142 132/186/142 133/187/142
f 133/187/143 134/188/143 141/195/143
f 134/188/144 135/189/144 142/196/144
f 25/38/145 72/102/145 185/258/145
f 154/216/146 186/259/146 179/252/146
f 186/259/147 187/260/147 180/253/147
f 187/260/148 188/261/148 181/254/148
f 188/261/149 189/262/149 182/255/149
f 189/262/150 190/263/150 183/256/150
f 191/264/151 184/257/151 183/256/151
f 192/265/152 185/258/152 184/257/152
