# Blender 3.3.9
# www.blender.org
mtllib GizmoRotate.mtl
o GizmoRotate
v 0.052535 -0.165314 0.959024
v 0.052680 -0.352907 0.902059
v 0.053681 -0.894103 0.360448
v 0.053844 1.010561 -0.172788
v 0.053442 0.861246 -0.533434
v 0.052900 0.585346 -0.809558
v -0.052536 0.224866 -0.959024
v 0.052536 -0.165314 -0.959024
v 0.052903 -0.525794 -0.809557
v 0.053447 -0.801694 -0.533432
v -0.054684 -0.959059 0.084685
v -0.054380 -0.959039 -0.085584
v 0.054685 -0.959059 -0.084686
v -0.054380 1.018592 0.085584
v 0.054685 1.018611 0.084685
v -0.053853 1.010561 0.172783
v 0.053844 1.010561 0.172788
v -0.053688 0.953656 0.360445
v 0.053442 0.861246 0.533434
v -0.052902 0.585346 0.809556
v 0.052680 0.412460 0.902059
v -0.052681 0.412460 0.902058
v 0.052535 0.224866 0.959024
v -0.053843 -0.951009 0.172788
v -0.052485 0.029776 -0.978260
v 0.052486 0.029776 -0.978260
v -0.052536 -0.165314 -0.959024
v 0.052680 -0.352907 -0.902059
v -0.053170 -0.677331 -0.685083
v 0.053167 -0.677331 -0.685084
v -0.053447 -0.801694 -0.533432
v 0.053681 -0.894103 -0.360448
v -0.053853 -0.951009 -0.172784
v -0.054380 -0.959039 0.085584
v 0.054685 -0.959059 0.084685
v 0.054380 1.018592 0.085584
v 0.053688 0.953656 -0.360445
v 0.053171 0.736883 -0.685083
v 0.052681 0.412460 -0.902058
v -0.052902 -0.525794 -0.809557
v -0.053688 -0.894103 -0.360445
v 0.053681 0.953656 0.360448
v -0.053447 0.861246 0.533432
v 0.053167 0.736883 0.685084
v 0.052900 0.585346 0.809558
v -0.052679 -0.352907 0.902059
v 0.052903 -0.525794 0.809556
v -0.052900 -0.525794 0.809558
v -0.053441 -0.801694 0.533434
v 0.053854 -0.951009 0.172783
v 0.054380 -0.959039 -0.085584
v -0.054684 -0.959059 -0.084686
v -0.054684 1.018611 0.084685
v -0.054380 1.018592 -0.085584
v 0.054685 1.018611 -0.084685
v -0.053853 1.010561 -0.172784
v -0.053688 0.953656 -0.360445
v -0.053447 0.861246 -0.533432
v -0.053170 0.736883 -0.685083
v -0.052902 0.585346 -0.809557
v -0.052681 0.412460 -0.902058
v 0.052535 0.224866 -0.959024
v -0.052679 -0.352907 -0.902059
v 0.053854 -0.951009 -0.172784
v -0.053167 0.736883 0.685084
v -0.052535 0.224866 0.959024
v -0.052485 0.029776 0.978260
v 0.052486 0.029776 0.978260
v -0.052536 -0.165314 0.959024
v -0.053170 -0.677331 0.685083
v 0.053167 -0.677331 0.685084
v 0.053442 -0.801694 0.533434
v -0.053688 -0.894103 0.360445
v 0.054380 -0.959039 0.085584
v 0.054380 1.018592 -0.085584
v -0.054684 1.018611 -0.084685
vn -0.0000 0.9570 0.2902
vn -0.0000 0.8820 0.4712
vn -0.0000 0.7732 0.6341
vn -0.0000 0.6347 0.7727
vn -0.0000 0.4718 0.8817
vn -0.0000 0.2906 0.9569
vn -0.0000 0.0981 0.9952
vn -0.0000 -0.0981 0.9952
vn -0.0000 -0.2906 0.9569
vn -0.0000 -0.4718 0.8817
vn -0.0000 -0.6347 0.7727
vn -0.0000 -0.7732 0.6341
vn -0.0000 -0.8820 0.4712
vn -0.0000 -0.9570 0.2902
vn -0.0000 0.9570 -0.2902
vn -0.0000 0.8820 -0.4712
vn -0.0000 0.7732 -0.6341
vn -0.0000 0.6347 -0.7727
vn -0.0000 0.4718 -0.8817
vn -0.0000 0.2906 -0.9569
vn -0.0000 0.0981 -0.9952
vn -0.0000 -0.0981 -0.9952
vn -0.0000 -0.2906 -0.9569
vn -0.0000 -0.4718 -0.8817
vn -0.0000 -0.6347 -0.7727
vn -0.0000 -0.7732 -0.6341
vn -0.0000 -0.8820 -0.4712
vn -0.0000 -0.9570 -0.2902
vn 0.0002 1.0000 -0.0001
vn 0.0002 -1.0000 0.0001
vn -0.0000 -0.9958 -0.0917
vn -0.0000 -0.9958 0.0917
vn -0.0006 0.9959 -0.0910
vn 0.0006 0.9959 0.0910
vn 0.0002 1.0000 0.0001
vn 0.0002 -1.0000 -0.0001
vn -0.0006 -0.9959 -0.0910
vn 0.0006 -0.9959 0.0910
vn -0.0000 0.9958 -0.0917
vn -0.0000 0.9958 0.0917
vn -0.0002 1.0000 0.0001
vn -0.0002 -1.0000 -0.0001
vn 0.0006 -0.9959 -0.0910
vn -0.0006 -0.9959 0.0910
vn -0.0002 1.0000 -0.0001
vn -0.0002 -1.0000 0.0001
vn 0.0006 0.9959 -0.0910
vn -0.0006 0.9959 0.0910
vt 0.259469 0.437500
vt 0.260080 0.375000
vt 0.274797 0.125000
vt 0.701211 0.937500
vt 0.757076 0.944553
vt 0.798798 0.937500
vt 0.732995 0.812500
vt 0.738753 0.687500
vt 0.759469 0.562500
vt 0.740531 0.437500
vt 0.738752 0.312500
vt 0.732994 0.187500
vt 0.102784 0.027531
vt 0.172336 0.034408
vt 0.036827 0.016229
vt 0.827141 0.034654
vt 0.062349 0.000151
vt 0.785203 0.027182
vt 0.103230 0.972506
vt 0.172859 0.965346
vt 0.214797 0.972818
vt 0.112568 0.991330
vt 0.201211 0.937500
vt 0.242922 0.944601
vt 0.201211 0.937500
vt 0.298798 0.937500
vt 0.242922 0.944601
vt 0.225203 0.875000
vt 0.267006 0.812500
vt 0.238753 0.687500
vt 0.260080 0.625000
vt 0.239920 0.625000
vt 0.259469 0.562500
vt 0.201202 0.062500
vt 0.242924 0.055447
vt 0.759278 0.500000
vt 0.740722 0.500000
vt 0.759469 0.437500
vt 0.739920 0.375000
vt 0.763292 0.250000
vt 0.736707 0.250000
vt 0.767005 0.187500
vt 0.725199 0.125000
vt 0.798789 0.062500
vt 0.757078 0.055399
vt 0.112471 0.008766
vt 0.214926 0.027541
vt 0.172336 0.034408
vt 0.102784 0.027531
vt 0.103230 0.972506
vt 0.172859 0.965346
vt 0.725203 0.875000
vt 0.736708 0.750000
vt 0.739920 0.625000
vt 0.761247 0.312500
vt 0.774797 0.125000
vt 0.274801 0.875000
vt 0.232995 0.812500
vt 0.263293 0.750000
vt 0.261247 0.687500
vt 0.239920 0.375000
vt 0.261247 0.312500
vt 0.238753 0.312500
vt 0.232994 0.187500
vt 0.242924 0.055447
vt 0.298789 0.062500
vt 0.201202 0.062500
vt 0.036827 0.016229
vt 0.827141 0.034654
vt 0.785203 0.027182
vt 0.062349 0.000151
vt 0.112568 0.991330
vt 0.214797 0.972818
vt 0.062253 0.999753
vt 0.785074 0.972459
vt 0.037080 0.983615
vt 0.827664 0.965592
vt 0.757076 0.944553
vt 0.798798 0.937500
vt 0.774801 0.875000
vt 0.767006 0.812500
vt 0.763293 0.750000
vt 0.761247 0.687500
vt 0.760080 0.625000
vt 0.740531 0.562500
vt 0.760080 0.375000
vt 0.701202 0.062500
vt 0.757078 0.055399
vt 0.798789 0.062500
vt 0.236708 0.750000
vt 0.240531 0.562500
vt 0.240722 0.500000
vt 0.259278 0.500000
vt 0.240531 0.437500
vt 0.236707 0.250000
vt 0.263292 0.250000
vt 0.267005 0.187500
vt 0.225199 0.125000
vt 0.112471 0.008766
vt 0.214926 0.027541
vt 0.062253 0.999753
vt 0.785074 0.972459
vt 0.827664 0.965592
vt 0.037080 0.983615
s 0
f 18/28/1 17/26/1 16/23/1
f 43/58/2 42/57/2 18/28/2
f 65/90/3 19/29/3 43/58/3
f 65/90/4 45/60/4 44/59/4
f 22/32/5 45/60/5 20/30/5
f 66/91/6 21/31/6 22/32/6
f 67/92/7 23/33/7 66/91/7
f 67/92/8 1/1/8 68/93/8
f 46/61/9 1/1/9 69/94/9
f 48/63/10 2/2/10 46/61/10
f 48/63/11 71/96/11 47/62/11
f 49/64/12 71/96/12 70/95/12
f 49/64/13 3/3/13 72/97/13
f 24/34/14 3/3/14 73/98/14
f 4/4/15 57/80/15 56/79/15
f 5/7/16 57/80/16 37/52/16
f 5/7/17 59/82/17 58/81/17
f 6/8/18 59/82/18 38/53/18
f 6/8/19 61/84/19 60/83/19
f 62/85/20 61/84/20 39/54/20
f 62/85/21 25/36/21 7/9/21
f 8/10/22 25/36/22 26/37/22
f 28/39/23 27/38/23 8/10/23
f 9/11/24 63/86/24 28/39/24
f 30/41/25 40/55/25 9/11/25
f 30/41/26 31/42/26 29/40/26
f 32/43/27 31/42/27 10/12/27
f 32/43/28 33/44/28 41/56/28
f 76/104/29 15/22/29 75/101/29
f 11/13/30 13/17/30 74/99/30
f 64/88/31 12/16/31 33/44/31
f 24/34/32 74/100/32 50/65/32
f 75/102/33 56/79/33 76/103/33
f 14/20/34 17/27/34 15/21/34
f 55/76/35 53/72/35 36/50/35
f 35/49/36 52/71/36 51/68/36
f 33/45/37 51/69/37 52/70/37
f 50/67/38 34/47/38 35/48/38
f 54/75/39 4/6/39 56/78/39
f 36/51/40 16/24/40 17/25/40
f 18/28/1 42/57/1 17/26/1
f 43/58/2 19/29/2 42/57/2
f 65/90/3 44/59/3 19/29/3
f 65/90/4 20/30/4 45/60/4
f 22/32/5 21/31/5 45/60/5
f 66/91/6 23/33/6 21/31/6
f 67/92/7 68/93/7 23/33/7
f 67/92/8 69/94/8 1/1/8
f 46/61/9 2/2/9 1/1/9
f 48/63/10 47/62/10 2/2/10
f 48/63/11 70/95/11 71/96/11
f 49/64/12 72/97/12 71/96/12
f 49/64/13 73/98/13 3/3/13
f 24/34/14 50/66/14 3/3/14
f 4/4/15 37/52/15 57/80/15
f 5/7/16 58/81/16 57/80/16
f 5/7/17 38/53/17 59/82/17
f 6/8/18 60/83/18 59/82/18
f 6/8/19 39/54/19 61/84/19
f 62/85/20 7/9/20 61/84/20
f 62/85/21 26/37/21 25/36/21
f 8/10/22 27/38/22 25/36/22
f 28/39/23 63/86/23 27/38/23
f 9/11/24 40/55/24 63/86/24
f 30/41/25 29/40/25 40/55/25
f 30/41/26 10/12/26 31/42/26
f 32/43/27 41/56/27 31/42/27
f 32/43/28 64/87/28 33/44/28
f 76/104/41 14/19/41 15/22/41
f 11/13/42 12/15/42 13/17/42
f 64/88/43 13/18/43 12/16/43
f 24/34/44 11/14/44 74/100/44
f 75/102/39 4/5/39 56/79/39
f 14/20/40 16/23/40 17/27/40
f 55/76/45 54/74/45 53/72/45
f 35/49/46 34/46/46 52/71/46
f 33/45/31 64/89/31 51/69/31
f 50/67/32 24/35/32 34/47/32
f 54/75/47 55/77/47 4/6/47
f 36/51/48 53/73/48 16/24/48
