# Blender 3.3.9
# www.blender.org
mtllib GizmoTranslate.mtl
o GizmoTranslate
v 0.008957 -0.413574 -0.027568
v 0.023450 -0.413574 -0.017038
v 0.028986 -0.413574 -0.000001
v 0.023451 -0.413574 0.017037
v 0.008958 -0.413574 0.027567
v -0.008957 -0.413574 0.027568
v -0.023450 -0.413574 0.017038
v -0.028986 -0.413574 0.000001
v -0.023451 -0.413574 -0.017037
v -0.008958 -0.413574 -0.027567
v 0.010832 1.091200 -0.033341
v 0.028360 1.091200 -0.020606
v 0.035056 1.091200 -0.000001
v 0.028361 1.091200 0.020605
v 0.010834 1.091200 0.033340
v -0.010832 1.091200 0.033341
v -0.028360 1.091200 0.020606
v -0.035056 1.091200 0.000001
v -0.028361 1.091200 -0.020605
v -0.010834 1.091200 -0.033340
v -0.007225 1.286690 -0.022235
v -0.018914 1.286690 -0.013741
v -0.023379 1.286690 0.000001
v -0.018914 1.286690 0.013742
v -0.007224 1.286690 0.022235
v 0.007225 1.286690 0.022235
v 0.018914 1.286690 0.013741
v 0.023379 1.286690 -0.000001
v 0.018914 1.286690 -0.013742
v 0.007224 1.286690 -0.022235
v -0.007793 1.300948 0.000000
v 0.007793 1.300948 -0.000000
v 0.009323 -0.119754 -0.028695
v 0.024409 -0.119754 -0.017735
v 0.030171 -0.119754 -0.000001
v 0.024409 -0.119754 0.017734
v 0.009324 -0.119754 0.028694
v -0.009323 -0.119754 0.028695
v -0.024409 -0.119754 0.017735
v -0.030171 -0.119754 0.000001
v -0.024409 -0.119754 -0.017734
v -0.009324 -0.119754 -0.028694
v -0.029848 1.091200 -0.091855
v -0.015440 1.218915 -0.047515
v -0.034137 1.108375 -0.105053
v -0.078139 1.091200 -0.056768
v -0.040420 1.218915 -0.029365
v -0.089366 1.108375 -0.064925
v -0.096583 1.091200 0.000002
v -0.049961 1.218915 0.000001
v -0.110460 1.108375 0.000003
v -0.078136 1.091200 0.056772
v -0.040418 1.218915 0.029367
v -0.089363 1.108375 0.064929
v -0.029844 1.091200 0.091857
v -0.015438 1.218915 0.047516
v -0.034132 1.108375 0.105055
v 0.029848 1.091200 0.091855
v 0.015440 1.218915 0.047515
v 0.034137 1.108375 0.105053
v 0.078139 1.091200 0.056768
v 0.040420 1.218915 0.029365
v 0.089366 1.108375 0.064925
v 0.096583 1.091200 -0.000002
v 0.049961 1.218915 -0.000001
v 0.110460 1.108375 -0.000003
v 0.078136 1.091200 -0.056772
v 0.040418 1.218915 -0.029367
v 0.089363 1.108375 -0.064929
v 0.015438 1.218915 -0.047516
v 0.029844 1.091200 -0.091857
v 0.034132 1.108375 -0.105055
vn 0.5878 -0.0038 -0.8090
vn 0.9510 -0.0038 -0.3090
vn 0.9511 -0.0038 0.3090
vn 0.5878 -0.0038 0.8090
vn -0.0000 -0.0038 1.0000
vn -0.5878 -0.0038 0.8090
vn -0.9510 -0.0038 0.3090
vn -0.9511 -0.0038 -0.3090
vn -0.5878 -0.0038 -0.8090
vn -0.0000 -0.0038 -1.0000
vn -0.8911 0.3495 0.2896
vn -0.8911 0.3495 -0.2895
vn 0.8911 0.3495 0.2895
vn -0.5507 0.3495 0.7580
vn -0.0000 0.3495 -0.9369
vn 0.8911 0.3495 -0.2896
vn -0.0000 0.3495 0.9369
vn -0.0000 -1.0000 -0.0000
vn 0.5507 0.3495 0.7580
vn -0.5507 0.3495 -0.7580
vn 0.5507 0.3495 -0.7580
vn 0.3693 0.7780 -0.5083
vn -0.0000 0.8418 -0.5398
vn -0.6593 0.7207 -0.2142
vn -0.3693 0.7780 0.5083
vn -0.0000 0.8418 0.5398
vn 0.6593 0.7207 0.2142
vn 0.4660 -0.6093 -0.6415
vn 0.5214 0.4617 -0.7176
vn 0.7541 -0.6093 -0.2450
vn 0.8436 0.4617 -0.2741
vn 0.7541 -0.6093 0.2450
vn 0.8436 0.4617 0.2741
vn 0.4661 -0.6093 0.6415
vn 0.5214 0.4617 0.7176
vn -0.0000 -0.6093 0.7929
vn -0.0000 0.4617 0.8870
vn -0.4661 -0.6093 0.6415
vn -0.5214 0.4617 0.7176
vn -0.7541 -0.6093 0.2450
vn -0.8436 0.4617 0.2741
vn -0.7541 -0.6093 -0.2450
vn -0.8436 0.4617 -0.2741
vn -0.4661 -0.6093 -0.6415
vn -0.5214 0.4617 -0.7176
vn -0.0000 -0.6093 -0.7929
vn -0.0000 0.4617 -0.8870
vn 0.6593 0.7207 -0.2142
vn -0.3693 0.7780 -0.5083
vn -0.6593 0.7207 0.2142
vn 0.3693 0.7780 0.5083
vn 0.4661 -0.6093 -0.6415
vn -0.4660 -0.6093 0.6415
vt 1.000000 1.000000
vt -0.000000 1.000000
vt 0.900000 1.000000
vt 0.800000 1.000000
vt 0.700000 1.000000
vt 0.600000 1.000000
vt 0.500000 1.000000
vt 0.400000 1.000000
vt 0.300000 1.000000
vt 0.200000 1.000000
vt 0.100000 1.000000
vt 1.000000 0.160221
vt -0.000000 0.160221
vt 0.900000 0.160221
vt 0.800000 0.160221
vt 0.700000 0.160221
vt 0.600000 0.160221
vt 0.500000 0.160221
vt 0.400000 0.160221
vt 0.300000 0.160221
vt 0.200000 0.160221
vt 0.100000 0.160221
vt 0.100000 0.160221
vt 0.200000 0.160221
vt 0.300000 0.160221
vt 0.400000 0.160221
vt 0.500000 0.160221
vt 0.600000 0.160221
vt 0.700000 0.160221
vt 0.800000 0.160221
vt 0.900000 0.160221
vt -0.000000 0.160221
vt 1.000000 0.160221
vt 0.000000 0.000000
vt 0.000000 0.000000
vt -0.000000 0.836026
vt 1.000000 0.836026
vt 0.900000 0.836026
vt 0.800000 0.836026
vt 0.700000 0.836026
vt 0.600000 0.836026
vt 0.500000 0.836026
vt 0.400000 0.836026
vt 0.300000 0.836026
vt 0.200000 0.836026
vt 0.100000 0.836026
vt 0.100000 0.160221
vt 0.100000 0.160221
vt 0.100000 0.160221
vt 0.200000 0.160221
vt 0.200000 0.160221
vt 0.200000 0.160221
vt 0.300000 0.160221
vt 0.300000 0.160221
vt 0.300000 0.160221
vt 0.400000 0.160221
vt 0.400000 0.160221
vt 0.400000 0.160221
vt 0.500000 0.160221
vt 0.500000 0.160221
vt 0.500000 0.160221
vt 0.600000 0.160221
vt 0.600000 0.160221
vt 0.600000 0.160221
vt 0.700000 0.160221
vt 0.700000 0.160221
vt 0.700000 0.160221
vt 0.800000 0.160221
vt 0.800000 0.160221
vt 0.800000 0.160221
vt 0.900000 0.160221
vt 0.900000 0.160221
vt 0.900000 0.160221
vt 1.000000 0.160221
vt -0.000000 0.160221
vt 1.000000 0.160221
vt -0.000000 0.160221
vt 0.993149 0.160221
vt 0.006851 0.160221
s 0
f 1/1/1 33/37/1 34/38/1
f 34/38/2 35/39/2 3/4/2
f 3/4/3 35/39/3 36/40/3
f 36/40/4 37/41/4 5/6/4
f 37/41/5 38/42/5 6/7/5
f 38/42/6 39/43/6 7/8/6
f 7/8/7 39/43/7 40/44/7
f 8/9/8 40/44/8 41/45/8
f 9/10/9 41/45/9 42/46/9
f 10/11/10 42/46/10 33/36/10
f 50/54/11 53/57/11 24/26/11
f 47/51/12 50/54/12 23/25/12
f 62/66/13 65/69/13 28/30/13
f 56/60/14 25/27/14 24/26/14
f 70/75/15 44/48/15 21/23/15
f 65/69/16 68/72/16 29/31/16
f 56/60/17 59/63/17 26/28/17
f 18/20/18 17/19/18 52/56/18
f 59/63/19 62/66/19 27/29/19
f 15/17/18 14/16/18 61/65/18
f 13/15/18 12/14/18 67/71/18
f 12/14/18 11/12/18 71/76/18
f 44/48/20 47/51/20 22/24/20
f 18/20/18 49/53/18 46/50/18
f 15/17/18 58/62/18 55/59/18
f 13/15/18 64/68/18 61/65/18
f 20/22/18 43/47/18 71/77/18
f 68/72/21 70/74/21 30/33/21
f 17/19/18 16/18/18 55/59/18
f 29/31/22 30/33/22 32/35/22
f 32/35/23 30/33/23 21/23/23
f 22/24/24 23/25/24 31/34/24
f 24/26/25 25/27/25 31/34/25
f 25/27/26 26/28/26 32/35/26
f 27/29/27 28/30/27 32/35/27
f 42/46/10 20/22/10 11/13/10
f 41/45/9 19/21/9 20/22/9
f 40/44/8 18/20/8 19/21/8
f 39/43/7 17/19/7 18/20/7
f 38/42/6 16/18/6 17/19/6
f 37/41/5 15/17/5 16/18/5
f 36/40/4 14/16/4 15/17/4
f 35/39/3 13/15/3 14/16/3
f 34/38/2 12/14/2 13/15/2
f 33/37/1 11/12/1 12/14/1
f 71/76/28 72/78/28 69/73/28
f 69/73/29 72/78/29 70/74/29
f 64/68/30 67/71/30 69/73/30
f 66/70/31 69/73/31 68/72/31
f 64/68/32 66/70/32 63/67/32
f 63/67/33 66/70/33 65/69/33
f 58/62/34 61/65/34 63/67/34
f 63/67/35 62/66/35 59/63/35
f 55/59/36 58/62/36 60/64/36
f 57/61/37 60/64/37 59/63/37
f 52/56/38 55/59/38 57/61/38
f 54/58/39 57/61/39 56/60/39
f 49/53/40 52/56/40 54/58/40
f 51/55/41 54/58/41 53/57/41
f 46/50/42 49/53/42 51/55/42
f 48/52/43 51/55/43 50/54/43
f 46/50/44 48/52/44 45/49/44
f 45/49/45 48/52/45 47/51/45
f 71/77/46 43/47/46 45/49/46
f 72/79/47 45/49/47 44/48/47
f 19/21/18 46/50/18 43/47/18
f 1/1/1 34/38/1 2/3/1
f 34/38/2 3/4/2 2/3/2
f 3/4/3 36/40/3 4/5/3
f 36/40/4 5/6/4 4/5/4
f 37/41/5 6/7/5 5/6/5
f 38/42/6 7/8/6 6/7/6
f 7/8/7 40/44/7 8/9/7
f 8/9/8 41/45/8 9/10/8
f 9/10/9 42/46/9 10/11/9
f 10/11/10 33/36/10 1/2/10
f 50/54/11 24/26/11 23/25/11
f 47/51/12 23/25/12 22/24/12
f 62/66/13 28/30/13 27/29/13
f 56/60/14 24/26/14 53/57/14
f 70/75/15 21/23/15 30/32/15
f 65/69/16 29/31/16 28/30/16
f 56/60/17 26/28/17 25/27/17
f 18/20/18 52/56/18 49/53/18
f 59/63/19 27/29/19 26/28/19
f 15/17/18 61/65/18 58/62/18
f 13/15/18 67/71/18 64/68/18
f 12/14/18 71/76/18 67/71/18
f 44/48/20 22/24/20 21/23/20
f 18/20/18 46/50/18 19/21/18
f 15/17/18 55/59/18 16/18/18
f 13/15/18 61/65/18 14/16/18
f 20/22/18 71/77/18 11/13/18
f 68/72/21 30/33/21 29/31/21
f 17/19/18 55/59/18 52/56/18
f 29/31/48 32/35/48 28/30/48
f 32/35/23 21/23/23 31/34/23
f 22/24/49 31/34/49 21/23/49
f 24/26/50 31/34/50 23/25/50
f 25/27/26 32/35/26 31/34/26
f 27/29/51 32/35/51 26/28/51
f 42/46/10 11/13/10 33/36/10
f 41/45/9 20/22/9 42/46/9
f 40/44/8 19/21/8 41/45/8
f 39/43/7 18/20/7 40/44/7
f 38/42/6 17/19/6 39/43/6
f 37/41/5 16/18/5 38/42/5
f 36/40/4 15/17/4 37/41/4
f 35/39/3 14/16/3 36/40/3
f 34/38/2 13/15/2 35/39/2
f 33/37/1 12/14/1 34/38/1
f 71/76/52 69/73/52 67/71/52
f 69/73/29 70/74/29 68/72/29
f 64/68/30 69/73/30 66/70/30
f 66/70/31 68/72/31 65/69/31
f 64/68/32 63/67/32 61/65/32
f 63/67/33 65/69/33 62/66/33
f 58/62/34 63/67/34 60/64/34
f 63/67/35 59/63/35 60/64/35
f 55/59/36 60/64/36 57/61/36
f 57/61/37 59/63/37 56/60/37
f 52/56/53 57/61/53 54/58/53
f 54/58/39 56/60/39 53/57/39
f 49/53/40 54/58/40 51/55/40
f 51/55/41 53/57/41 50/54/41
f 46/50/42 51/55/42 48/52/42
f 48/52/43 50/54/43 47/51/43
f 46/50/44 45/49/44 43/47/44
f 45/49/45 47/51/45 44/48/45
f 71/77/46 45/49/46 72/79/46
f 72/79/47 44/48/47 70/75/47
f 19/21/18 43/47/18 20/22/18
o GizmoTranslate.001
v -0.583921 0.125571 0.000000
v -0.217885 0.125571 0.000000
v -0.583921 0.491608 0.000000
v -0.217885 0.491608 0.000000
vn -0.0000 -0.0000 -1.0000
vt 0.000000 0.000000
vt 1.000000 0.000000
vt 0.000000 1.000000
vt 1.000000 1.000000
s 0
f 74/81/54 73/80/54 75/82/54
f 74/81/54 75/82/54 76/83/54
