# Blender 5.0.0
# www.blender.org
mtllib GizmoArrow.mtl
o Cylinder
v 0.000000 -0.633356 -0.122547
v 0.000000 0.633356 -0.122547
v 0.037869 -0.633356 -0.116549
v 0.037869 0.633356 -0.116549
v 0.072031 -0.633356 -0.099142
v 0.072031 0.633356 -0.099142
v 0.099142 -0.633356 -0.072031
v 0.099142 0.633356 -0.072031
v 0.116549 -0.633356 -0.037869
v 0.116549 0.633356 -0.037869
v 0.122547 -0.633356 0.000000
v 0.122547 0.633356 0.000000
v 0.116549 -0.633356 0.037869
v 0.116549 0.633356 0.037869
v 0.099142 -0.633356 0.072031
v 0.099142 0.633356 0.072031
v 0.072031 -0.633356 0.099142
v 0.072031 0.633356 0.099142
v 0.037869 -0.633356 0.116549
v 0.037869 0.633356 0.116549
v 0.000000 -0.633356 0.122547
v 0.000000 0.633356 0.122547
v -0.037869 -0.633356 0.116549
v -0.037869 0.633356 0.116549
v -0.072031 -0.633356 0.099142
v -0.072031 0.633356 0.099142
v -0.099142 -0.633356 0.072031
v -0.099142 0.633356 0.072031
v -0.116549 -0.633356 0.037869
v -0.116549 0.633356 0.037869
v -0.122547 -0.633356 0.000000
v -0.122547 0.633356 0.000000
v -0.116549 -0.633356 -0.037869
v -0.116549 0.633356 -0.037869
v -0.099142 -0.633356 -0.072031
v -0.099142 0.633356 -0.072031
v -0.072031 -0.633356 -0.099142
v -0.072031 0.633356 -0.099142
v -0.037869 -0.633356 -0.116549
v -0.037869 0.633356 -0.116549
v -0.000000 0.633356 -0.190933
v 0.059001 0.633356 -0.181588
v 0.112227 0.633356 -0.154468
v 0.154468 0.633356 -0.112227
v 0.181588 0.633356 -0.059001
v 0.190933 0.633356 -0.000000
v 0.181588 0.633356 0.059001
v 0.154468 0.633356 0.112227
v 0.112227 0.633356 0.154468
v 0.059001 0.633356 0.181588
v -0.000000 0.633356 0.190933
v -0.059001 0.633356 0.181588
v -0.112227 0.633356 0.154468
v -0.154468 0.633356 0.112227
v -0.181588 0.633356 0.059001
v -0.190933 0.633356 -0.000000
v -0.181588 0.633356 -0.059001
v -0.154468 0.633356 -0.112227
v -0.112227 0.633356 -0.154468
v -0.059001 0.633356 -0.181588
v -0.000000 0.871698 -0.047932
v 0.014812 0.871698 -0.045586
v 0.028174 0.871698 -0.038778
v 0.038778 0.871698 -0.028174
v 0.045586 0.871698 -0.014812
v 0.047932 0.871698 0.000000
v 0.045586 0.871698 0.014812
v 0.038778 0.871698 0.028174
v 0.028174 0.871698 0.038778
v 0.014812 0.871698 0.045586
v -0.000000 0.871698 0.047932
v -0.014812 0.871698 0.045586
v -0.028174 0.871698 0.038778
v -0.038778 0.871698 0.028174
v -0.045586 0.871698 0.014812
v -0.047932 0.871698 0.000000
v -0.045586 0.871698 -0.014812
v -0.038778 0.871698 -0.028174
v -0.028174 0.871698 -0.038778
v -0.014812 0.871698 -0.045586
v 0.032365 0.871698 0.022636
v 0.033014 0.871698 0.004337
v 0.030058 0.871698 -0.014327
v 0.023786 0.871698 -0.031529
v 0.014593 0.871698 0.028463
v 0.012755 0.871698 0.008584
v 0.009478 0.871698 -0.012105
v 0.005083 0.871698 -0.031579
v -0.005083 0.871698 0.031579
v -0.009478 0.871698 0.012105
v -0.012755 0.871698 -0.008584
v -0.014593 0.871698 -0.028463
v -0.023786 0.871698 0.031529
v -0.030058 0.871698 0.014327
v -0.033014 0.871698 -0.004337
v -0.032365 0.871698 -0.022636
v -0.080610 -0.633356 -0.060812
v -0.036629 -0.633356 -0.076847
v 0.011089 -0.633356 -0.084405
v 0.057872 -0.633356 -0.082745
v -0.080738 -0.633356 -0.012996
v -0.030949 -0.633356 -0.024233
v 0.021946 -0.633356 -0.032611
v 0.072771 -0.633356 -0.037309
v -0.072771 -0.633356 0.037309
v -0.021946 -0.633356 0.032611
v 0.030949 -0.633356 0.024233
v 0.080738 -0.633356 0.012996
v -0.057872 -0.633356 0.082745
v -0.011089 -0.633356 0.084405
v 0.036629 -0.633356 0.076847
v 0.080610 -0.633356 0.060812
vn 0.1564 -0.0000 -0.9877
vn 0.4540 -0.0000 -0.8910
vn 0.7071 -0.0000 -0.7071
vn 0.8910 -0.0000 -0.4540
vn 0.9877 -0.0000 -0.1564
vn 0.9877 -0.0000 0.1564
vn 0.8910 -0.0000 0.4540
vn 0.7071 -0.0000 0.7071
vn 0.4540 -0.0000 0.8910
vn 0.1564 -0.0000 0.9877
vn -0.1564 -0.0000 0.9877
vn -0.4540 -0.0000 0.8910
vn -0.7071 -0.0000 0.7071
vn -0.8910 -0.0000 0.4540
vn -0.9877 -0.0000 0.1564
vn -0.9877 -0.0000 -0.1564
vn -0.8910 -0.0000 -0.4540
vn -0.7071 -0.0000 -0.7071
vn -0.4540 -0.0000 -0.8910
vn -0.1564 -0.0000 -0.9877
vn -0.0000 -1.0000 -0.0000
vn 0.8497 0.5098 -0.1346
vn -0.1346 0.5098 -0.8497
vn -0.6083 0.5098 0.6083
vn 0.8497 0.5098 0.1346
vn -0.7665 0.5098 0.3906
vn 0.7665 0.5098 0.3906
vn -0.8497 0.5098 0.1346
vn 0.6083 0.5098 0.6083
vn 0.1346 0.5098 -0.8497
vn -0.8497 0.5098 -0.1346
vn 0.3906 0.5098 0.7665
vn 0.3906 0.5098 -0.7665
vn -0.7665 0.5098 -0.3906
vn 0.1346 0.5098 0.8497
vn 0.6083 0.5098 -0.6083
vn -0.6083 0.5098 -0.6083
vn -0.1346 0.5098 0.8497
vn 0.7665 0.5098 -0.3906
vn -0.3906 0.5098 -0.7665
vn -0.3906 0.5098 0.7665
vn -0.0000 1.0000 -0.0000
vt 1.000000 1.000000
vt 0.950000 0.000000
vt 1.000000 0.000000
vt 0.950000 1.000000
vt 0.900000 0.000000
vt 0.900000 1.000000
vt 0.850000 0.000000
vt 0.850000 1.000000
vt 0.800000 0.000000
vt 0.800000 1.000000
vt 0.750000 0.000000
vt 0.750000 1.000000
vt 0.700000 0.000000
vt 0.700000 1.000000
vt 0.650000 0.000000
vt 0.650000 1.000000
vt 0.600000 0.000000
vt 0.600000 1.000000
vt 0.550000 0.000000
vt 0.550000 1.000000
vt 0.500000 0.000000
vt 0.500000 1.000000
vt 0.450000 0.000000
vt 0.450000 1.000000
vt 0.400000 0.000000
vt 0.400000 1.000000
vt 0.350000 0.000000
vt 0.350000 1.000000
vt 0.300000 0.000000
vt 0.300000 1.000000
vt 0.250000 0.000000
vt 0.250000 1.000000
vt 0.200000 0.000000
vt 0.200000 1.000000
vt 0.150000 0.000000
vt 0.150000 1.000000
vt 0.100000 0.000000
vt 0.100000 1.000000
vt 0.050000 0.000000
vt 0.050000 1.000000
vt -0.000000 0.000000
vt -0.000000 1.000000
vt 0.650000 1.000000
vt 0.608000 1.000000
vt 0.442000 1.000000
vt 0.488000 1.000000
vt 0.692000 1.000000
vt 0.650000 1.000000
vt 0.450000 1.000000
vt 0.400000 1.000000
vt 0.358000 1.000000
vt 0.738000 1.000000
vt 0.350000 1.000000
vt 0.312000 1.000000
vt 0.302000 1.000000
vt 0.250000 1.000000
vt 0.268000 1.000000
vt 0.782000 1.000000
vt 0.250000 0.000000
vt 0.312000 0.000000
vt 0.358000 0.000000
vt 0.268000 0.000000
vt 0.350000 0.000000
vt 0.442000 0.000000
vt 0.302000 0.000000
vt 0.450000 0.000000
vt 0.400000 0.000000
vt 0.488000 0.000000
vt 0.782000 0.000000
vt 0.700000 0.000000
vt 0.692000 0.000000
vt 0.738000 0.000000
vt 0.650000 0.000000
vt 0.608000 0.000000
s 0
f 2/1/1 3/2/1 1/3/1
f 4/4/2 5/5/2 3/2/2
f 6/6/3 7/7/3 5/5/3
f 8/8/4 9/9/4 7/7/4
f 10/10/5 11/11/5 9/9/5
f 12/12/6 13/13/6 11/11/6
f 14/14/7 15/15/7 13/13/7
f 16/16/8 17/17/8 15/15/8
f 18/18/9 19/19/9 17/17/9
f 20/20/10 21/21/10 19/19/10
f 22/22/11 23/23/11 21/21/11
f 24/24/12 25/25/12 23/23/12
f 26/26/13 27/27/13 25/25/13
f 28/28/14 29/29/14 27/27/14
f 30/30/15 31/31/15 29/29/15
f 32/32/16 33/33/16 31/31/16
f 34/34/17 35/35/17 33/33/17
f 36/36/18 37/37/18 35/35/18
f 38/38/19 39/39/19 37/37/19
f 40/40/20 1/41/20 39/39/20
f 6/6/21 42/4/21 43/6/21
f 16/16/21 47/14/21 48/16/21
f 26/26/21 52/24/21 53/26/21
f 36/36/21 57/34/21 58/36/21
f 10/10/21 46/12/21 12/12/21
f 20/20/21 51/22/21 22/22/21
f 30/30/21 56/32/21 32/32/21
f 40/40/21 41/42/21 2/42/21
f 6/6/21 44/8/21 8/8/21
f 16/16/21 49/18/21 18/18/21
f 26/26/21 54/28/21 28/28/21
f 36/36/21 59/38/21 38/38/21
f 2/1/21 42/4/21 4/4/21
f 12/12/21 47/14/21 14/14/21
f 22/22/21 52/24/21 24/24/21
f 32/32/21 57/34/21 34/34/21
f 8/8/21 45/10/21 10/10/21
f 18/18/21 50/20/21 20/20/21
f 28/28/21 55/30/21 30/30/21
f 38/38/21 60/40/21 40/40/21
f 45/10/22 66/12/22 46/12/22
f 60/40/23 61/42/23 41/42/23
f 53/26/24 74/28/24 54/28/24
f 46/12/25 67/14/25 47/14/25
f 54/28/26 75/30/26 55/30/26
f 47/14/27 68/16/27 48/16/27
f 55/30/28 76/32/28 56/32/28
f 48/16/29 69/18/29 49/18/29
f 41/1/30 62/4/30 42/4/30
f 56/32/31 77/34/31 57/34/31
f 49/18/32 70/20/32 50/20/32
f 42/4/33 63/6/33 43/6/33
f 57/34/34 78/36/34 58/36/34
f 50/20/35 71/22/35 51/22/35
f 43/6/36 64/8/36 44/8/36
f 58/36/37 79/38/37 59/38/37
f 51/22/38 72/24/38 52/24/38
f 44/8/39 65/10/39 45/10/39
f 59/38/40 80/40/40 60/40/40
f 52/24/41 73/26/41 53/26/41
f 81/43/42 68/16/42 67/14/42
f 85/44/42 69/18/42 81/43/42
f 89/45/42 70/20/42 85/46/42
f 89/45/42 72/24/42 71/22/42
f 93/26/42 73/26/42 72/24/42
f 82/47/42 67/14/42 66/12/42
f 86/48/42 81/43/42 82/47/42
f 86/49/42 89/45/42 85/46/42
f 90/50/42 93/26/42 89/45/42
f 94/51/42 74/28/42 93/26/42
f 83/52/42 66/12/42 65/10/42
f 87/14/42 82/47/42 83/52/42
f 91/53/42 86/49/42 87/26/42
f 95/54/42 90/50/42 91/53/42
f 76/32/42 94/51/42 95/54/42
f 64/8/42 83/52/42 65/10/42
f 84/10/42 87/14/42 83/52/42
f 88/55/42 91/53/42 87/26/42
f 96/56/42 91/53/42 92/57/42
f 77/34/42 95/54/42 96/56/42
f 63/6/42 84/10/42 64/8/42
f 62/4/42 88/58/42 84/10/42
f 61/42/42 92/57/42 88/55/42
f 79/38/42 92/57/42 80/40/42
f 78/36/42 96/56/42 79/38/42
f 97/59/21 35/35/21 37/37/21
f 101/60/21 33/33/21 97/59/21
f 105/61/21 31/31/21 101/60/21
f 105/61/21 27/27/21 29/29/21
f 109/25/21 25/25/21 27/27/21
f 98/62/21 37/37/21 39/39/21
f 102/63/21 97/59/21 98/62/21
f 106/25/21 101/60/21 102/63/21
f 106/25/21 109/25/21 105/61/21
f 110/64/21 23/23/21 109/25/21
f 1/41/21 98/62/21 39/39/21
f 99/65/21 102/63/21 98/62/21
f 107/66/21 102/63/21 103/67/21
f 111/68/21 106/25/21 107/66/21
f 19/19/21 110/64/21 111/68/21
f 3/2/21 99/69/21 1/3/21
f 100/9/21 103/70/21 99/69/21
f 108/71/21 103/70/21 104/72/21
f 112/15/21 107/73/21 108/71/21
f 17/17/21 111/74/21 112/15/21
f 5/5/21 100/9/21 3/2/21
f 7/7/21 104/72/21 100/9/21
f 11/11/21 104/72/21 9/9/21
f 13/13/21 108/71/21 11/11/21
f 15/15/21 112/15/21 13/13/21
f 2/1/1 4/4/1 3/2/1
f 4/4/2 6/6/2 5/5/2
f 6/6/3 8/8/3 7/7/3
f 8/8/4 10/10/4 9/9/4
f 10/10/5 12/12/5 11/11/5
f 12/12/6 14/14/6 13/13/6
f 14/14/7 16/16/7 15/15/7
f 16/16/8 18/18/8 17/17/8
f 18/18/9 20/20/9 19/19/9
f 20/20/10 22/22/10 21/21/10
f 22/22/11 24/24/11 23/23/11
f 24/24/12 26/26/12 25/25/12
f 26/26/13 28/28/13 27/27/13
f 28/28/14 30/30/14 29/29/14
f 30/30/15 32/32/15 31/31/15
f 32/32/16 34/34/16 33/33/16
f 34/34/17 36/36/17 35/35/17
f 36/36/18 38/38/18 37/37/18
f 38/38/19 40/40/19 39/39/19
f 40/40/20 2/42/20 1/41/20
f 6/6/21 4/4/21 42/4/21
f 16/16/21 14/14/21 47/14/21
f 26/26/21 24/24/21 52/24/21
f 36/36/21 34/34/21 57/34/21
f 10/10/21 45/10/21 46/12/21
f 20/20/21 50/20/21 51/22/21
f 30/30/21 55/30/21 56/32/21
f 40/40/21 60/40/21 41/42/21
f 6/6/21 43/6/21 44/8/21
f 16/16/21 48/16/21 49/18/21
f 26/26/21 53/26/21 54/28/21
f 36/36/21 58/36/21 59/38/21
f 2/1/21 41/1/21 42/4/21
f 12/12/21 46/12/21 47/14/21
f 22/22/21 51/22/21 52/24/21
f 32/32/21 56/32/21 57/34/21
f 8/8/21 44/8/21 45/10/21
f 18/18/21 49/18/21 50/20/21
f 28/28/21 54/28/21 55/30/21
f 38/38/21 59/38/21 60/40/21
f 45/10/22 65/10/22 66/12/22
f 60/40/23 80/40/23 61/42/23
f 53/26/24 73/26/24 74/28/24
f 46/12/25 66/12/25 67/14/25
f 54/28/26 74/28/26 75/30/26
f 47/14/27 67/14/27 68/16/27
f 55/30/28 75/30/28 76/32/28
f 48/16/29 68/16/29 69/18/29
f 41/1/30 61/1/30 62/4/30
f 56/32/31 76/32/31 77/34/31
f 49/18/32 69/18/32 70/20/32
f 42/4/33 62/4/33 63/6/33
f 57/34/34 77/34/34 78/36/34
f 50/20/35 70/20/35 71/22/35
f 43/6/36 63/6/36 64/8/36
f 58/36/37 78/36/37 79/38/37
f 51/22/38 71/22/38 72/24/38
f 44/8/39 64/8/39 65/10/39
f 59/38/40 79/38/40 80/40/40
f 52/24/41 72/24/41 73/26/41
f 81/43/42 69/18/42 68/16/42
f 85/44/42 70/20/42 69/18/42
f 89/45/42 71/22/42 70/20/42
f 89/45/42 93/26/42 72/24/42
f 93/26/42 74/28/42 73/26/42
f 82/47/42 81/43/42 67/14/42
f 86/48/42 85/44/42 81/43/42
f 86/49/42 90/50/42 89/45/42
f 90/50/42 94/51/42 93/26/42
f 94/51/42 75/30/42 74/28/42
f 83/52/42 82/47/42 66/12/42
f 87/14/42 86/48/42 82/47/42
f 91/53/42 90/50/42 86/49/42
f 95/54/42 94/51/42 90/50/42
f 76/32/42 75/30/42 94/51/42
f 64/8/42 84/10/42 83/52/42
f 84/10/42 88/58/42 87/14/42
f 88/55/42 92/57/42 91/53/42
f 96/56/42 95/54/42 91/53/42
f 77/34/42 76/32/42 95/54/42
f 63/6/42 62/4/42 84/10/42
f 62/4/42 61/1/42 88/58/42
f 61/42/42 80/40/42 92/57/42
f 79/38/42 96/56/42 92/57/42
f 78/36/42 77/34/42 96/56/42
f 97/59/21 33/33/21 35/35/21
f 101/60/21 31/31/21 33/33/21
f 105/61/21 29/29/21 31/31/21
f 105/61/21 109/25/21 27/27/21
f 109/25/21 23/23/21 25/25/21
f 98/62/21 97/59/21 37/37/21
f 102/63/21 101/60/21 97/59/21
f 106/25/21 105/61/21 101/60/21
f 106/25/21 110/64/21 109/25/21
f 110/64/21 21/21/21 23/23/21
f 1/41/21 99/65/21 98/62/21
f 99/65/21 103/67/21 102/63/21
f 107/66/21 106/25/21 102/63/21
f 111/68/21 110/64/21 106/25/21
f 19/19/21 21/21/21 110/64/21
f 3/2/21 100/9/21 99/69/21
f 100/9/21 104/72/21 103/70/21
f 108/71/21 107/73/21 103/70/21
f 112/15/21 111/74/21 107/73/21
f 17/17/21 19/19/21 111/74/21
f 5/5/21 7/7/21 100/9/21
f 7/7/21 9/9/21 104/72/21
f 11/11/21 108/71/21 104/72/21
f 13/13/21 112/15/21 108/71/21
f 15/15/21 17/17/21 112/15/21
